<?xml version="1.0" encoding="iso-8859-1"?>
<!-- Uploaded to: SVG Repo, www.svgrepo.com, Generator: SVG Repo Mixer Tools -->
<svg height="800px" width="800px" version="1.1" id="Layer_1" xmlns="http://www.w3.org/2000/svg" xmlns:xlink="http://www.w3.org/1999/xlink" 
	 viewBox="0 0 512 512" xml:space="preserve">
<path style="fill:#CCCCCC;" d="M368.867,10.199H143.133L10.199,143.133v225.736l132.933,132.932h225.736l132.932-132.933V143.133
	L368.867,10.199z M143.76,257.881c0,49.868-40.426,90.295-90.295,90.295l0,0V163.825l0,0c49.868,0,90.295,40.426,90.295,90.295
	V257.881z M256,298.639c-23.549,0-42.639-19.09-42.639-42.639s19.09-42.639,42.639-42.639s42.639,19.09,42.639,42.639
	C298.639,279.549,279.549,298.639,256,298.639z M458.535,348.175L458.535,348.175c-49.868,0-90.295-40.426-90.295-90.295v-3.762
	c0-49.868,40.426-90.295,90.295-90.295l0,0V348.175z"/>
<path style="fill:#603813;" d="M368.867,512H143.133c-2.705,0-5.299-1.075-7.212-2.987L2.987,376.079
	C1.075,374.167,0,371.572,0,368.867V143.133c0-2.705,1.075-5.299,2.987-7.212L135.921,2.987C137.833,1.075,140.428,0,143.133,0
	h225.735c2.705,0,5.299,1.075,7.212,2.987l132.933,132.933c1.912,1.912,2.987,4.507,2.987,7.212v225.735
	c0,2.705-1.075,5.3-2.987,7.212L376.079,509.013C374.167,510.925,371.572,512,368.867,512z M147.357,491.602h217.286
	l126.959-126.959V147.357L364.643,20.398H147.357L20.398,147.357v217.286L147.357,491.602z M458.535,358.375
	c-55.412,0-100.494-45.082-100.494-100.494v-3.761c0-55.412,45.081-100.494,100.494-100.494c5.633,0,10.199,4.566,10.199,10.199
	v184.351C468.734,353.808,464.168,358.375,458.535,358.375z M448.336,174.671c-39.365,5.026-69.896,38.74-69.896,79.449v3.761
	c0,40.709,30.531,74.423,69.896,79.449V174.671z M53.465,358.375c-5.633,0-10.199-4.566-10.199-10.199V163.825
	c0-5.633,4.566-10.199,10.199-10.199c55.412,0,100.494,45.081,100.494,100.494v3.761
	C153.959,313.293,108.878,358.375,53.465,358.375z M63.664,174.671v162.659c39.365-5.026,69.896-38.74,69.896-79.449v-3.761
	C133.561,213.41,103.029,179.697,63.664,174.671z M256,308.838c-29.135,0-52.838-23.703-52.838-52.838s23.703-52.838,52.838-52.838
	s52.838,23.703,52.838,52.838C308.838,285.135,285.135,308.838,256,308.838z M256,223.56c-17.887,0-32.44,14.552-32.44,32.44
	s14.552,32.44,32.44,32.44s32.44-14.552,32.44-32.44S273.887,223.56,256,223.56z"/>
<g>
	<path style="fill:#FFFFFF;" d="M181.31,68.361l-4.137,4.137c-1.034,0.905-2.198,1.164-3.102,1.164
		c-3.232,0-5.429-3.361-5.429-6.722c0-2.326,1.164-4.782,3.232-6.076l15.253-11.634c0.905-0.776,2.067-1.293,3.49-1.293
		c3.49,0,7.497,2.068,7.497,5.429v84.026c0,3.49-4.266,5.3-8.402,5.3c-4.266,0-8.402-1.81-8.402-5.3v-69.03H181.31z"/>
	<path style="fill:#FFFFFF;" d="M211.428,113.864V77.799c0-21.589,13.186-29.603,30.25-29.603c17.064,0,30.378,8.015,30.378,29.603
		v36.066c0,21.589-13.315,29.603-30.378,29.603S211.428,135.453,211.428,113.864z M255.25,77.799
		c0-10.212-5.171-14.866-13.573-14.866c-8.533,0-13.445,4.654-13.445,14.866v36.066c0,10.212,4.912,14.866,13.445,14.866
		c8.402,0,13.573-4.654,13.573-14.866V77.799z"/>
	<path style="fill:#FFFFFF;" d="M283.946,113.864V77.799c0-21.589,13.186-29.603,30.25-29.603c17.064,0,30.378,8.015,30.378,29.603
		v36.066c0,21.589-13.315,29.603-30.378,29.603C297.132,143.468,283.946,135.453,283.946,113.864z M327.769,77.799
		c0-10.212-5.171-14.866-13.573-14.866c-8.533,0-13.445,4.654-13.445,14.866v36.066c0,10.212,4.912,14.866,13.445,14.866
		c8.402,0,13.573-4.654,13.573-14.866V77.799z"/>
	<path style="fill:#FFFFFF;" d="M181.31,388.616l-4.137,4.137c-1.034,0.906-2.198,1.164-3.102,1.164
		c-3.232,0-5.429-3.361-5.429-6.722c0-2.326,1.164-4.782,3.232-6.076l15.253-11.634c0.905-0.776,2.068-1.293,3.491-1.293
		c3.49,0,7.497,2.068,7.497,5.429v84.026c0,3.49-4.266,5.301-8.402,5.301c-4.266,0-8.402-1.81-8.402-5.301v-69.03H181.31z"/>
	<path style="fill:#FFFFFF;" d="M211.428,434.119v-36.066c0-21.589,13.186-29.603,30.25-29.603c17.064,0,30.378,8.015,30.378,29.603
		v36.066c0,21.589-13.315,29.603-30.378,29.603S211.428,455.708,211.428,434.119z M255.25,398.053
		c0-10.212-5.171-14.866-13.573-14.866c-8.533,0-13.445,4.654-13.445,14.866v36.066c0,10.212,4.912,14.866,13.445,14.866
		c8.402,0,13.573-4.654,13.573-14.866V398.053z"/>
	<path style="fill:#FFFFFF;" d="M283.946,434.119v-36.066c0-21.589,13.186-29.603,30.25-29.603c17.064,0,30.378,8.015,30.378,29.603
		v36.066c0,21.589-13.315,29.603-30.378,29.603C297.132,463.722,283.946,455.708,283.946,434.119z M327.769,398.053
		c0-10.212-5.171-14.866-13.573-14.866c-8.533,0-13.445,4.654-13.445,14.866v36.066c0,10.212,4.912,14.866,13.445,14.866
		c8.402,0,13.573-4.654,13.573-14.866V398.053z"/>
</g>
<g>
	<path style="fill:#603813;" d="M256,340.456c-46.57,0-84.456-37.886-84.456-84.456S209.43,171.544,256,171.544
		c5.633,0,10.199,4.566,10.199,10.199c0,5.633-4.566,10.199-10.199,10.199c-35.321,0-64.057,28.736-64.057,64.057
		s28.736,64.057,64.057,64.057c22.548,0,43.694-12.074,55.186-31.51c2.866-4.849,9.121-6.455,13.97-3.589
		c4.849,2.866,6.456,9.121,3.589,13.97C313.601,324.544,285.727,340.456,256,340.456z"/>
	<path style="fill:#603813;" d="M330.02,272.319c-0.277,0-0.558-0.011-0.839-0.035c-5.615-0.457-9.795-5.379-9.337-10.993
		c0.143-1.75,0.214-3.531,0.214-5.291c0-5.633,4.566-10.199,10.199-10.199c5.633,0,10.199,4.566,10.199,10.199
		c0,2.311-0.095,4.648-0.283,6.947C339.74,268.28,335.277,272.319,330.02,272.319z"/>
</g>
</svg>